<svg width="118" height="30" viewBox="0 0 118 30" fill="none" xmlns="http://www.w3.org/2000/svg">
<path d="M0.5 29.5068V0.493152H6.97289V29.5068H0.5ZM5.48866 29.5068V23.8356H19.8774V29.5068H5.48866Z" fill="black"/>
<path d="M35.8941 30C33.6952 30 31.6613 29.6164 29.7923 28.8493C27.9507 28.0822 26.3291 27.0137 24.9273 25.6438C23.5255 24.274 22.4398 22.6849 21.6702 20.8767C20.9006 19.0411 20.5158 17.0685 20.5158 14.9589C20.5158 12.8219 20.9006 10.8493 21.6702 9.0411C22.4398 7.23288 23.5118 5.65754 24.8861 4.31507C26.2604 2.94521 27.8683 1.89041 29.7098 1.15068C31.5788 0.383562 33.6128 0 35.8117 0C37.983 0 39.9895 0.383562 41.831 1.15068C43.7001 1.89041 45.3217 2.94521 46.696 4.31507C48.0978 5.65754 49.1835 7.24658 49.9531 9.08219C50.7227 10.8904 51.1075 12.863 51.1075 15C51.1075 17.1096 50.7227 19.0822 49.9531 20.9178C49.1835 22.726 48.1115 24.3151 46.7372 25.6849C45.3629 27.0274 43.7413 28.0822 41.8723 28.8493C40.0307 29.6164 38.038 30 35.8941 30ZM35.8117 24.1233C37.5433 24.1233 39.055 23.7397 40.3468 22.9726C41.6661 22.2055 42.6831 21.137 43.3977 19.7671C44.1123 18.3699 44.4697 16.7671 44.4697 14.9589C44.4697 13.589 44.2635 12.3562 43.8512 11.2603C43.4389 10.137 42.848 9.17808 42.0784 8.38356C41.3088 7.56164 40.388 6.94521 39.3161 6.53425C38.2716 6.09589 37.1035 5.87671 35.8117 5.87671C34.0801 5.87671 32.5546 6.26027 31.2353 7.0274C29.9434 7.76712 28.9402 8.82192 28.2256 10.1918C27.511 11.5342 27.1536 13.1233 27.1536 14.9589C27.1536 16.3288 27.3598 17.5753 27.7721 18.6986C28.1844 19.8219 28.7616 20.7945 29.5037 21.6164C30.2733 22.411 31.194 23.0274 32.266 23.4658C33.3379 23.9041 34.5198 24.1233 35.8117 24.1233Z" fill="black"/>
<path d="M69.3482 29.9589C67.2318 29.9589 65.2391 29.5753 63.3701 28.8082C61.5285 28.0411 59.9206 26.9863 58.5463 25.6438C57.172 24.274 56.0864 22.6849 55.2893 20.8767C54.5197 19.0411 54.1349 17.0685 54.1349 14.9589C54.1349 12.8493 54.5334 10.8904 55.3305 9.08219C56.1276 7.27397 57.227 5.69863 58.6288 4.35616C60.058 2.9863 61.7209 1.93151 63.6174 1.19178C65.514 0.424659 67.5479 0.0410978 69.7193 0.0410978C72.2205 0.0410978 74.4881 0.493152 76.522 1.39726C78.5834 2.30137 80.2875 3.54795 81.6343 5.13699L77.2229 9.53425C76.2884 8.32877 75.1889 7.42466 73.9246 6.82192C72.6602 6.21918 71.231 5.91781 69.6368 5.91781C67.9327 5.91781 66.4072 6.30137 65.0604 7.06849C63.7136 7.80822 62.6554 8.86301 61.8858 10.2329C61.1437 11.5753 60.7727 13.1507 60.7727 14.9589C60.7727 16.7671 61.1437 18.3562 61.8858 19.726C62.628 21.0959 63.6449 22.1644 64.9368 22.9315C66.2286 23.6986 67.7128 24.0822 69.3895 24.0822C71.0936 24.0822 72.5366 23.7671 73.7184 23.137C74.9278 22.4795 75.8486 21.5479 76.4808 20.3425C77.1404 19.1096 77.4703 17.6164 77.4703 15.863L81.758 18.7397L68.771 18.5342V13.0685H84.0668V14.0137C84.0668 17.4932 83.4347 20.4247 82.1703 22.8082C80.9335 25.1644 79.2019 26.9452 76.9755 28.1507C74.7766 29.3562 72.2342 29.9589 69.3482 29.9589Z" fill="black"/>
<path d="M102.287 30C100.088 30 98.0538 29.6164 96.1848 28.8493C94.3433 28.0822 92.7216 27.0137 91.3198 25.6438C89.9181 24.274 88.8324 22.6849 88.0628 20.8767C87.2932 19.0411 86.9084 17.0685 86.9084 14.9589C86.9084 12.8219 87.2932 10.8493 88.0628 9.0411C88.8324 7.23288 89.9043 5.65754 91.2786 4.31507C92.6529 2.94521 94.2608 1.89041 96.1024 1.15068C97.9714 0.383562 100.005 0 102.204 0C104.376 0 106.382 0.383562 108.224 1.15068C110.093 1.89041 111.714 2.94521 113.089 4.31507C114.49 5.65754 115.576 7.24658 116.346 9.08219C117.115 10.8904 117.5 12.863 117.5 15C117.5 17.1096 117.115 19.0822 116.346 20.9178C115.576 22.726 114.504 24.3151 113.13 25.6849C111.755 27.0274 110.134 28.0822 108.265 28.8493C106.423 29.6164 104.431 30 102.287 30ZM102.204 24.1233C103.936 24.1233 105.448 23.7397 106.739 22.9726C108.059 22.2055 109.076 21.137 109.79 19.7671C110.505 18.3699 110.862 16.7671 110.862 14.9589C110.862 13.589 110.656 12.3562 110.244 11.2603C109.831 10.137 109.241 9.17808 108.471 8.38356C107.701 7.56164 106.781 6.94521 105.709 6.53425C104.664 6.09589 103.496 5.87671 102.204 5.87671C100.473 5.87671 98.9471 6.26027 97.6278 7.0274C96.336 7.76712 95.3328 8.82192 94.6181 10.1918C93.9035 11.5342 93.5462 13.1233 93.5462 14.9589C93.5462 16.3288 93.7523 17.5753 94.1646 18.6986C94.5769 19.8219 95.1541 20.7945 95.8962 21.6164C96.6658 22.411 97.5866 23.0274 98.6585 23.4658C99.7305 23.9041 100.912 24.1233 102.204 24.1233Z" fill="black"/>
</svg>
