<svg width="38" height="37" viewBox="0 0 38 37" fill="none" xmlns="http://www.w3.org/2000/svg">
<path d="M17.02 1.25801C17.2217 0.911802 17.5107 0.624545 17.8581 0.424895C18.2056 0.225244 18.5993 0.120178 19 0.120178C19.4007 0.120178 19.7944 0.225244 20.1418 0.424895C20.4892 0.624545 20.7782 0.911802 20.98 1.25801L26.1041 10.0543L36.0555 12.2103C36.4469 12.2954 36.8092 12.4816 37.1063 12.7503C37.4033 13.0191 37.6247 13.361 37.7485 13.742C37.8722 14.1229 37.8939 14.5297 37.8114 14.9217C37.7289 15.3137 37.5451 15.6772 37.2783 15.976L30.495 23.5678L31.5216 33.697C31.5621 34.0959 31.4973 34.4984 31.3336 34.8643C31.1699 35.2303 30.913 35.5469 30.5887 35.7825C30.2644 36.0182 29.8839 36.1646 29.4853 36.2072C29.0866 36.2498 28.6838 36.1871 28.317 36.0253L19 31.9187L9.68297 36.0253C9.31616 36.1871 8.91332 36.2498 8.51469 36.2072C8.11606 36.1646 7.73558 36.0182 7.41124 35.7825C7.0869 35.5469 6.83006 35.2303 6.66635 34.8643C6.50264 34.4984 6.4378 34.0959 6.47831 33.697L7.50497 23.5678L0.721639 15.9778C0.45439 15.6791 0.270191 15.3154 0.187431 14.9232C0.104672 14.5309 0.126247 14.1238 0.250003 13.7426C0.373759 13.3613 0.595366 13.0191 0.892701 12.7503C1.19004 12.4814 1.55269 12.2952 1.94447 12.2103L11.8958 10.0543L17.02 1.25801Z" fill="black"/>
</svg>
